<svg xmlns="http://www.w3.org/2000/svg" width="32" height="32" viewBox="0 0 16 16">
  <g id="Grupo_5224" data-name="Grupo 5224" transform="translate(-668.375 -369.375)">
    <path id="Trazado_4343" data-name="Trazado 4343" d="M676.375,369.375a8,8,0,1,0,8,8,8,8,0,0,0-8-8Z" fill="#ff6c63"/>
    <path id="Trazado_4344" data-name="Trazado 4344" d="M682.176,384.227l-2.447-2.448-2.447,2.448A.743.743,0,1,1,676.2,383.2l.028-.028,2.448-2.447-2.448-2.447a.743.743,0,0,1,1.05-1.05l2.447,2.448,2.447-2.448a.743.743,0,1,1,1.078,1.022l-.028.028-2.448,2.447,2.448,2.447a.747.747,0,0,1,0,1.05.737.737,0,0,1-1.043.007Z" transform="translate(-3.354 -3.354)" fill="#fff"/>
  </g>
</svg>
